# vtk DataFile Version 3.0
FEM Solver Results
ASCII
DATASET UNSTRUCTURED_GRID

POINTS 15 double
0 0 0
0.5 0 0
1 0 0
1.5 0 0
2 0 0
0 0.25 0
0.5 0.25 0
1 0.25 0
1.5 0.25 0
2 0.25 0
0 0.5 0
0.5 0.5 0
1 0.5 0
1.5 0.5 0
2 0.5 0

CELLS 16 64
3 0 1 6
3 0 6 5
3 1 2 7
3 1 7 6
3 2 3 8
3 2 8 7
3 3 4 9
3 3 9 8
3 5 6 11
3 5 11 10
3 6 7 12
3 6 12 11
3 7 8 13
3 7 13 12
3 8 9 14
3 8 14 13

CELL_TYPES 16
5
5
5
5
5
5
5
5
5
5
5
5
5
5
5
5

POINT_DATA 15
VECTORS Displacement double
-3.94741e-08 4.73181e-09 0
-3.70549e-05 -5.09517e-05 0
-6.35301e-05 -0.000162247 0
-7.94644e-05 -0.000315163 0
-8.40892e-05 -0.00048712 0
-1.0518e-09 7.53689e-09 0
6.63864e-08 -4.77123e-05 0
-7.95574e-07 -0.000159702 0
-1.60816e-06 -0.00031358 0
-1.36042e-06 -0.000486995 0
4.05259e-08 -2.22687e-08 0
3.59097e-05 -4.92391e-05 0
6.19034e-05 -0.000160284 0
7.72665e-05 -0.000313465 0
8.19517e-05 -0.000489744 0
